<?xml version="1.0" encoding="utf-8"?>
<!-- Generator: Adobe Illustrator 23.0.1, SVG Export Plug-In . SVG Version: 6.00 Build 0)  -->
<svg version="1.1" id="Layer_1" xmlns="http://www.w3.org/2000/svg" xmlns:xlink="http://www.w3.org/1999/xlink" x="0px" y="0px"
	 viewBox="0 0 385 100.06" style="enable-background:new 0 0 385 100.06;" xml:space="preserve">
<style type="text/css">
	.st0{fill:#08132F;}
	.st1{fill:#D01C1D;}
	.st2{fill:#525252;}
</style>
<g>
	<g>
		<path class="st0" d="M101.42,12.09h-20.5V4.42h49.76v7.66h-20.5v56.96h-8.77V12.09z"/>
		<path class="st0" d="M131.75,65.13c-3.29-3.11-4.94-7.19-4.94-12.23V40.15c0-5.42,1.65-9.75,4.94-13.02
			c3.29-3.26,7.65-4.89,13.06-4.89h7.57c5.23,0,9.45,1.6,12.65,4.8c3.2,3.2,4.8,7.45,4.8,12.74v8.68H135.4v4.43
			c0,2.83,0.86,5.11,2.59,6.83c1.72,1.72,4,2.59,6.83,2.59h7.11c2.77,0,5.02-0.72,6.74-2.17c1.72-1.45,2.59-3.37,2.59-5.77h8.4
			c0,4.62-1.63,8.34-4.89,11.17c-3.26,2.83-7.57,4.25-12.93,4.25h-7.02C139.4,69.79,135.04,68.24,131.75,65.13z M161.25,41.63v-1.85
			c0-3.08-0.82-5.54-2.45-7.39c-1.63-1.85-3.77-2.77-6.42-2.77h-7.57c-2.83,0-5.11,0.97-6.83,2.91c-1.72,1.94-2.59,4.51-2.59,7.71
			v1.38H161.25z"/>
		<path class="st0" d="M180.45,4.42h8.59V28.8c1.42-1.97,3.2-3.55,5.35-4.75c2.15-1.2,4.28-1.8,6.37-1.8h6.28
			c4.43,0,8.02,1.48,10.76,4.43c2.74,2.95,4.11,6.83,4.11,11.63v30.74h-8.59V38.31c0-2.52-0.65-4.57-1.94-6.14
			c-1.29-1.57-2.99-2.35-5.08-2.35h-5.91c-2.65,0-5.05,1-7.2,3c-2.16,2-3.54,4.6-4.15,7.8v28.44h-8.59V4.42z"/>
		<path class="st0" d="M237.37,65.13c-3.29-3.11-4.94-7.19-4.94-12.23V40.15c0-5.42,1.65-9.75,4.94-13.02
			c3.29-3.26,7.65-4.89,13.06-4.89H258c5.23,0,9.45,1.6,12.65,4.8c3.2,3.2,4.8,7.45,4.8,12.74v8.68h-34.44v4.43
			c0,2.83,0.86,5.11,2.59,6.83c1.72,1.72,4,2.59,6.83,2.59h7.11c2.77,0,5.02-0.72,6.74-2.17c1.72-1.45,2.59-3.37,2.59-5.77h8.4
			c0,4.62-1.63,8.34-4.89,11.17c-3.26,2.83-7.57,4.25-12.93,4.25h-7.02C245.02,69.79,240.66,68.24,237.37,65.13z M266.87,41.63
			v-1.85c0-3.08-0.82-5.54-2.45-7.39c-1.63-1.85-3.77-2.77-6.42-2.77h-7.57c-2.83,0-5.11,0.97-6.83,2.91
			c-1.72,1.94-2.59,4.51-2.59,7.71v1.38H266.87z"/>
		<path class="st0" d="M288.29,65.68c-3.02-2.74-4.52-6.35-4.52-10.85h8.4c0,2.28,0.74,4.12,2.22,5.54
			c1.48,1.42,3.45,2.12,5.91,2.12h8.12c2.34,0,4.22-0.45,5.63-1.34c1.42-0.89,2.12-2.08,2.12-3.55v-2.68c0-0.98-0.42-1.86-1.25-2.63
			c-0.83-0.77-1.89-1.28-3.19-1.52L295.76,48c-3.39-0.61-6.09-1.89-8.12-3.83c-2.03-1.94-3.05-4.2-3.05-6.79v-3.05
			c0-3.63,1.45-6.56,4.34-8.77c2.89-2.22,6.77-3.32,11.63-3.32h7.76c4.62,0,8.32,1.26,11.13,3.79c2.8,2.52,4.2,5.88,4.2,10.06h-8.4
			c-0.06-1.97-0.72-3.55-1.98-4.75c-1.26-1.2-2.91-1.8-4.94-1.8h-7.66c-2.28,0-4.08,0.46-5.4,1.38c-1.32,0.92-1.98,2.16-1.98,3.69
			v2.31c0,0.99,0.43,1.85,1.29,2.59c0.86,0.74,1.97,1.26,3.32,1.57l16.16,2.86c3.2,0.55,5.8,1.79,7.8,3.69c2,1.91,3,4.12,3,6.65v3.6
			c0,3.57-1.51,6.45-4.52,8.63c-3.02,2.19-6.99,3.28-11.91,3.28h-8.12C295.3,69.79,291.3,68.42,288.29,65.68z"/>
		<path class="st0" d="M338.1,64.9c-3.29-3.26-4.94-7.54-4.94-12.83v-12c0-5.35,1.66-9.66,4.99-12.93c3.32-3.26,7.72-4.89,13.2-4.89
			h7.76c5.48,0,9.88,1.63,13.2,4.89c3.32,3.26,4.99,7.57,4.99,12.93v12c0,5.29-1.68,9.57-5.03,12.83
			c-3.36,3.26-7.77,4.89-13.25,4.89h-7.85C345.74,69.79,341.39,68.16,338.1,64.9z M358.91,62.22c2.95,0,5.32-0.95,7.11-2.86
			c1.78-1.91,2.68-4.46,2.68-7.66V40.34c0-3.2-0.88-5.75-2.63-7.66c-1.75-1.91-4.08-2.86-6.97-2.86h-7.76
			c-2.89,0-5.22,0.96-6.97,2.86c-1.75,1.91-2.63,4.46-2.63,7.66v11.36c0,3.2,0.86,5.76,2.59,7.66c1.72,1.91,4.03,2.86,6.92,2.86
			H358.91z"/>
	</g>
	<g>
		<path class="st0" d="M8.37,83.49h-4.2v-0.61h9.45v0.61h-4.2v8.27H8.37V83.49z"/>
		<path class="st0" d="M18.93,91.26c-0.61-0.41-0.92-0.94-0.92-1.61v-1.97c0-0.7,0.31-1.27,0.92-1.7c0.61-0.43,1.42-0.65,2.41-0.65
			h1.55c0.96,0,1.73,0.21,2.32,0.63c0.59,0.42,0.88,0.97,0.88,1.67v1.07h-7.06v0.95c0,0.48,0.21,0.87,0.63,1.17
			c0.42,0.3,0.98,0.44,1.68,0.44h1.44c0.68,0,1.23-0.13,1.66-0.4c0.42-0.27,0.63-0.62,0.63-1.05h0.98c0,0.62-0.3,1.11-0.9,1.49
			c-0.6,0.38-1.39,0.56-2.38,0.56h-1.44C20.35,91.87,19.54,91.66,18.93,91.26z M25.09,88.11v-0.48c0-0.51-0.2-0.92-0.61-1.22
			c-0.4-0.31-0.93-0.46-1.59-0.46h-1.55c-0.69,0-1.25,0.16-1.68,0.48c-0.42,0.32-0.63,0.74-0.63,1.26v0.43H25.09z"/>
		<path class="st0" d="M33.92,91.4c-0.53-0.31-0.8-0.72-0.8-1.24v-0.48c0-0.52,0.27-0.93,0.81-1.23c0.54-0.3,1.26-0.46,2.16-0.46
			h1.23c0.43,0,0.87,0.05,1.33,0.14c0.46,0.09,0.86,0.22,1.18,0.38v-1.23c0-0.4-0.18-0.72-0.55-0.98c-0.37-0.25-0.84-0.38-1.42-0.38
			H36.4c-0.59,0-1.07,0.09-1.44,0.28c-0.37,0.19-0.55,0.44-0.55,0.75h-1.02c0-0.49,0.28-0.88,0.83-1.18
			c0.56-0.3,1.28-0.44,2.18-0.44h1.48c0.9,0,1.61,0.18,2.15,0.53c0.54,0.36,0.8,0.83,0.8,1.42v4.48h-0.97v-0.99
			c-0.33,0.34-0.73,0.6-1.21,0.8c-0.48,0.19-0.97,0.29-1.46,0.29h-1.15C35.15,91.87,34.45,91.71,33.92,91.4z M37.21,91.26
			c0.53,0,1.04-0.13,1.52-0.38c0.49-0.25,0.86-0.59,1.11-1v-0.69c-0.28-0.18-0.65-0.32-1.11-0.43c-0.46-0.11-0.93-0.16-1.41-0.16
			h-1.23c-0.59,0-1.07,0.1-1.42,0.3c-0.35,0.2-0.53,0.46-0.53,0.79v0.48c0,0.33,0.17,0.59,0.51,0.79c0.34,0.2,0.8,0.3,1.38,0.3
			H37.21z"/>
		<path class="st0" d="M49.07,91.25c-0.6-0.41-0.9-0.95-0.9-1.62v-1.95c0-0.7,0.3-1.27,0.9-1.7c0.6-0.43,1.39-0.65,2.36-0.65h1.55
			c0.92,0,1.66,0.17,2.22,0.51c0.56,0.34,0.84,0.78,0.84,1.33h-0.98c0-0.37-0.19-0.67-0.58-0.89c-0.39-0.22-0.89-0.34-1.51-0.34
			h-1.55c-0.67,0-1.21,0.16-1.62,0.48c-0.41,0.32-0.62,0.74-0.62,1.26v1.95c0,0.49,0.21,0.88,0.62,1.18
			c0.41,0.3,0.96,0.44,1.64,0.44H53c0.63,0,1.14-0.15,1.53-0.44c0.39-0.3,0.59-0.69,0.59-1.17h0.98c0,0.67-0.28,1.21-0.85,1.61
			c-0.57,0.41-1.32,0.61-2.25,0.61h-1.55C50.46,91.87,49.67,91.66,49.07,91.25z"/>
		<path class="st0" d="M63.3,82.88h1.02v3.59c0.32-0.36,0.71-0.63,1.18-0.84c0.47-0.2,0.96-0.3,1.47-0.3h1.31
			c0.82,0,1.49,0.19,2,0.58c0.51,0.38,0.77,0.89,0.77,1.53v4.33h-1v-4.34c0-0.44-0.16-0.8-0.49-1.07c-0.33-0.27-0.76-0.41-1.29-0.41
			h-1.27c-0.57,0-1.1,0.15-1.61,0.46c-0.5,0.31-0.86,0.71-1.06,1.21v4.15H63.3V82.88z"/>
		<path class="st0" d="M79.01,84.2c-0.16-0.1-0.24-0.24-0.24-0.41c0-0.17,0.08-0.31,0.24-0.41c0.16-0.11,0.36-0.16,0.62-0.16
			c0.25,0,0.45,0.05,0.61,0.16c0.15,0.11,0.23,0.24,0.23,0.41c0,0.16-0.08,0.29-0.23,0.4c-0.15,0.11-0.35,0.16-0.61,0.16
			C79.37,84.36,79.17,84.3,79.01,84.2z M79.11,85.43h1v6.33h-1V85.43z"/>
		<path class="st0" d="M88.3,85.43h0.98v1.08c0.32-0.36,0.72-0.65,1.2-0.86c0.49-0.21,0.98-0.32,1.49-0.32h1.27
			c0.82,0,1.49,0.19,2,0.58C95.75,86.29,96,86.8,96,87.44v4.33h-1v-4.34c0-0.44-0.16-0.8-0.49-1.07c-0.33-0.27-0.76-0.41-1.29-0.41
			h-1.23c-0.57,0-1.1,0.16-1.61,0.47c-0.5,0.31-0.86,0.72-1.06,1.22v4.14H88.3V85.43z"/>
		<path class="st0" d="M104.69,93.93c-0.5-0.27-0.79-0.64-0.85-1.08h1.02c0.05,0.27,0.24,0.49,0.56,0.65
			c0.32,0.16,0.72,0.25,1.2,0.25h1.57c0.71,0,1.26-0.15,1.65-0.46c0.39-0.31,0.59-0.74,0.59-1.29v-1.24
			c-0.3,0.3-0.68,0.55-1.15,0.74c-0.46,0.19-0.92,0.28-1.39,0.28h-1.4c-0.93,0-1.69-0.22-2.27-0.65c-0.58-0.43-0.87-1-0.87-1.71
			v-1.64c0-0.73,0.31-1.31,0.92-1.76c0.61-0.45,1.42-0.67,2.43-0.67h1.4c0.45,0,0.9,0.08,1.33,0.25c0.44,0.16,0.77,0.38,1.01,0.65
			v-0.8h0.98v6.56c0,0.74-0.28,1.31-0.85,1.73c-0.57,0.41-1.36,0.62-2.39,0.62h-1.57C105.84,94.34,105.2,94.2,104.69,93.93z
			 M107.87,91.15c0.63,0,1.18-0.17,1.66-0.5c0.47-0.33,0.77-0.73,0.9-1.17v-2.11c-0.11-0.42-0.39-0.77-0.82-1.03
			c-0.44-0.27-0.94-0.4-1.51-0.4h-1.38c-0.71,0-1.28,0.17-1.7,0.51c-0.43,0.34-0.64,0.78-0.64,1.32v1.64c0,0.52,0.2,0.94,0.6,1.26
			c0.4,0.33,0.91,0.49,1.54,0.49H107.87z"/>
		<path class="st0" d="M140.06,85.43l-2.08,5.71c-0.09,0.22-0.21,0.38-0.36,0.48c-0.15,0.1-0.35,0.15-0.61,0.15h-0.47l-2.48-5.1
			l-2.56,5.1h-0.47c-0.25,0-0.45-0.05-0.61-0.15c-0.15-0.1-0.27-0.26-0.36-0.48l-2.1-5.71h1.08l1.93,5.57l2.67-5.39h0.4
			c0.27,0,0.45,0.11,0.57,0.34l2.46,5.06l1.91-5.58H140.06z"/>
		<path class="st0" d="M147.3,84.2c-0.16-0.1-0.24-0.24-0.24-0.41c0-0.17,0.08-0.31,0.24-0.41c0.16-0.11,0.36-0.16,0.62-0.16
			c0.25,0,0.45,0.05,0.61,0.16c0.15,0.11,0.23,0.24,0.23,0.41c0,0.16-0.08,0.29-0.23,0.4c-0.15,0.11-0.35,0.16-0.61,0.16
			C147.67,84.36,147.46,84.3,147.3,84.2z M147.41,85.43h1v6.33h-1V85.43z"/>
		<path class="st0" d="M158.13,91.35c-0.42-0.27-0.62-0.73-0.62-1.36v-3.95h-1.67v-0.61h1.67v-1.92h1v1.92h2.46v0.61h-2.46v3.95
			c0,0.41,0.13,0.71,0.38,0.89c0.25,0.18,0.68,0.27,1.27,0.27h0.81v0.61h-0.78C159.23,91.76,158.54,91.63,158.13,91.35z"/>
		<path class="st0" d="M168.43,82.88h1.02v3.59c0.32-0.36,0.71-0.63,1.18-0.84c0.47-0.2,0.96-0.3,1.47-0.3h1.31
			c0.82,0,1.49,0.19,2,0.58c0.51,0.38,0.77,0.89,0.77,1.53v4.33h-1v-4.34c0-0.44-0.16-0.8-0.49-1.07c-0.33-0.27-0.76-0.41-1.29-0.41
			h-1.27c-0.57,0-1.1,0.15-1.61,0.46c-0.5,0.31-0.86,0.71-1.06,1.21v4.15h-1.02V82.88z"/>
		<path class="st0" d="M193.42,82.88h1.02v3.59c0.32-0.36,0.71-0.63,1.18-0.84c0.47-0.2,0.96-0.3,1.47-0.3h1.31
			c0.82,0,1.49,0.19,2,0.58c0.51,0.38,0.77,0.89,0.77,1.53v4.33h-1v-4.34c0-0.44-0.16-0.8-0.49-1.07c-0.33-0.27-0.76-0.41-1.29-0.41
			h-1.27c-0.57,0-1.1,0.15-1.61,0.46c-0.5,0.31-0.86,0.71-1.06,1.21v4.15h-1.02V82.88z"/>
		<path class="st0" d="M209.43,91.26c-0.61-0.41-0.92-0.94-0.92-1.61v-1.97c0-0.7,0.31-1.27,0.92-1.7c0.61-0.43,1.42-0.65,2.41-0.65
			h1.55c0.96,0,1.73,0.21,2.32,0.63c0.59,0.42,0.88,0.97,0.88,1.67v1.07h-7.06v0.95c0,0.48,0.21,0.87,0.63,1.17
			c0.42,0.3,0.98,0.44,1.68,0.44h1.44c0.68,0,1.23-0.13,1.66-0.4c0.42-0.27,0.63-0.62,0.63-1.05h0.98c0,0.62-0.3,1.11-0.9,1.49
			c-0.6,0.38-1.39,0.56-2.38,0.56h-1.44C210.84,91.87,210.04,91.66,209.43,91.26z M215.59,88.11v-0.48c0-0.51-0.2-0.92-0.61-1.22
			c-0.4-0.31-0.93-0.46-1.59-0.46h-1.55c-0.69,0-1.25,0.16-1.68,0.48c-0.42,0.32-0.63,0.74-0.63,1.26v0.43H215.59z"/>
		<path class="st0" d="M224.41,91.4c-0.53-0.31-0.8-0.72-0.8-1.24v-0.48c0-0.52,0.27-0.93,0.81-1.23c0.54-0.3,1.26-0.46,2.16-0.46
			h1.23c0.43,0,0.87,0.05,1.33,0.14c0.46,0.09,0.85,0.22,1.18,0.38v-1.23c0-0.4-0.18-0.72-0.55-0.98c-0.37-0.25-0.84-0.38-1.42-0.38
			h-1.48c-0.59,0-1.07,0.09-1.44,0.28c-0.37,0.19-0.55,0.44-0.55,0.75h-1.02c0-0.49,0.28-0.88,0.83-1.18
			c0.56-0.3,1.28-0.44,2.18-0.44h1.48c0.9,0,1.61,0.18,2.15,0.53c0.54,0.36,0.8,0.83,0.8,1.42v4.48h-0.97v-0.99
			c-0.33,0.34-0.73,0.6-1.21,0.8c-0.48,0.19-0.97,0.29-1.46,0.29h-1.16C225.65,91.87,224.94,91.71,224.41,91.4z M227.71,91.26
			c0.53,0,1.04-0.13,1.52-0.38c0.49-0.25,0.86-0.59,1.11-1v-0.69c-0.28-0.18-0.65-0.32-1.11-0.43c-0.46-0.11-0.93-0.16-1.41-0.16
			h-1.23c-0.59,0-1.07,0.1-1.42,0.3c-0.35,0.2-0.53,0.46-0.53,0.79v0.48c0,0.33,0.17,0.59,0.51,0.79c0.34,0.2,0.8,0.3,1.38,0.3
			H227.71z"/>
		<path class="st0" d="M239.05,85.43h0.98v1.03c0.28-0.32,0.68-0.58,1.19-0.77c0.52-0.19,1.07-0.29,1.67-0.29h0.7v0.61h-0.72
			c-0.82,0-1.49,0.18-2.02,0.53c-0.52,0.36-0.79,0.82-0.79,1.38v3.83h-1.02V85.43z"/>
		<path class="st0" d="M251.91,91.35c-0.42-0.27-0.62-0.73-0.62-1.36v-3.95h-1.67v-0.61h1.67v-1.92h1v1.92h2.46v0.61h-2.46v3.95
			c0,0.41,0.13,0.71,0.38,0.89c0.25,0.18,0.68,0.27,1.27,0.27h0.81v0.61h-0.78C253.01,91.76,252.32,91.63,251.91,91.35z"/>
		<path class="st0" d="M272.2,91.4c-0.53-0.31-0.8-0.72-0.8-1.24v-0.48c0-0.52,0.27-0.93,0.81-1.23c0.54-0.3,1.26-0.46,2.16-0.46
			h1.23c0.43,0,0.87,0.05,1.33,0.14c0.46,0.09,0.85,0.22,1.18,0.38v-1.23c0-0.4-0.18-0.72-0.55-0.98c-0.37-0.25-0.84-0.38-1.42-0.38
			h-1.48c-0.59,0-1.07,0.09-1.44,0.28c-0.37,0.19-0.55,0.44-0.55,0.75h-1.02c0-0.49,0.28-0.88,0.83-1.18
			c0.56-0.3,1.28-0.44,2.18-0.44h1.48c0.9,0,1.61,0.18,2.15,0.53c0.54,0.36,0.8,0.83,0.8,1.42v4.48h-0.97v-0.99
			c-0.33,0.34-0.73,0.6-1.21,0.8c-0.48,0.19-0.97,0.29-1.46,0.29h-1.16C273.44,91.87,272.73,91.71,272.2,91.4z M275.5,91.26
			c0.53,0,1.04-0.13,1.52-0.38c0.49-0.25,0.86-0.59,1.11-1v-0.69c-0.28-0.18-0.65-0.32-1.11-0.43c-0.46-0.11-0.93-0.16-1.41-0.16
			h-1.23c-0.59,0-1.07,0.1-1.42,0.3c-0.35,0.2-0.53,0.46-0.53,0.79v0.48c0,0.33,0.17,0.59,0.51,0.79c0.34,0.2,0.8,0.3,1.38,0.3
			H275.5z"/>
		<path class="st0" d="M286.84,85.43h0.98v1.08c0.32-0.36,0.72-0.65,1.2-0.86c0.49-0.21,0.98-0.32,1.49-0.32h1.27
			c0.82,0,1.49,0.19,2,0.58c0.51,0.38,0.77,0.89,0.77,1.53v4.33h-1v-4.34c0-0.44-0.16-0.8-0.49-1.07c-0.33-0.27-0.76-0.41-1.29-0.41
			h-1.23c-0.57,0-1.1,0.16-1.61,0.47c-0.51,0.31-0.86,0.72-1.06,1.22v4.14h-1.02V85.43z"/>
		<path class="st0" d="M302.76,91.21c-0.58-0.44-0.87-1.01-0.87-1.72v-1.7c0-0.74,0.31-1.33,0.92-1.78
			c0.61-0.45,1.42-0.68,2.41-0.68h1.44c0.44,0,0.87,0.08,1.3,0.23c0.42,0.16,0.76,0.37,1.01,0.63v-3.31h1v8.88h-0.98V90.7
			c-0.32,0.36-0.7,0.65-1.16,0.86c-0.46,0.21-0.94,0.31-1.45,0.31h-1.34C304.1,91.87,303.34,91.65,302.76,91.21z M306.36,91.26
			c0.59,0,1.14-0.18,1.65-0.53c0.5-0.35,0.83-0.78,0.97-1.27V87.4c-0.13-0.43-0.4-0.78-0.83-1.05c-0.43-0.27-0.93-0.41-1.5-0.41
			h-1.4c-0.71,0-1.27,0.17-1.69,0.51c-0.42,0.34-0.63,0.79-0.63,1.34v1.7c0,0.52,0.2,0.95,0.6,1.27c0.4,0.33,0.91,0.49,1.54,0.49
			H306.36z"/>
		<path class="st0" d="M327.65,91.34c-0.55-0.35-0.82-0.81-0.82-1.39h0.98c0,0.39,0.19,0.71,0.56,0.95
			c0.37,0.25,0.86,0.37,1.45,0.37h1.63c0.62,0,1.11-0.08,1.49-0.25c0.37-0.17,0.56-0.39,0.56-0.66v-0.49c0-0.19-0.1-0.35-0.31-0.49
			c-0.21-0.14-0.48-0.24-0.8-0.28l-3.29-0.38c-0.62-0.07-1.11-0.23-1.49-0.48c-0.37-0.25-0.56-0.54-0.56-0.88v-0.43
			c0-0.47,0.26-0.86,0.79-1.15c0.52-0.29,1.21-0.44,2.07-0.44h1.61c0.83,0,1.51,0.16,2.02,0.48c0.51,0.32,0.77,0.74,0.77,1.27h-0.98
			c-0.03-0.35-0.2-0.63-0.52-0.84c-0.32-0.21-0.75-0.32-1.28-0.32h-1.61c-0.56,0-1,0.09-1.34,0.27c-0.34,0.18-0.51,0.42-0.51,0.72
			v0.41c0,0.19,0.11,0.37,0.34,0.51c0.23,0.15,0.52,0.24,0.89,0.27l3.29,0.38c0.58,0.07,1.05,0.22,1.4,0.47
			c0.35,0.25,0.53,0.54,0.53,0.88v0.53c0,0.45-0.28,0.81-0.83,1.08c-0.56,0.27-1.29,0.41-2.22,0.41h-1.63
			C328.93,91.87,328.2,91.69,327.65,91.34z"/>
		<path class="st0" d="M342.32,91.22c-0.62-0.43-0.93-0.99-0.93-1.68v-1.89c0-0.69,0.31-1.25,0.94-1.68
			c0.62-0.43,1.45-0.64,2.47-0.64h1.5c1.02,0,1.85,0.21,2.47,0.64c0.62,0.43,0.94,0.99,0.94,1.68v1.89c0,0.69-0.32,1.25-0.95,1.68
			c-0.63,0.43-1.46,0.64-2.5,0.64h-1.5C343.75,91.87,342.94,91.65,342.32,91.22z M346.26,91.26c0.73,0,1.32-0.16,1.77-0.47
			c0.45-0.31,0.67-0.73,0.67-1.24v-1.89c0-0.52-0.22-0.93-0.66-1.24c-0.44-0.31-1.02-0.47-1.74-0.47h-1.5
			c-0.72,0-1.3,0.16-1.73,0.47c-0.44,0.31-0.65,0.73-0.65,1.24v1.89c0,0.52,0.21,0.93,0.64,1.24c0.43,0.31,1,0.47,1.7,0.47H346.26z"
			/>
		<path class="st0" d="M357.83,91.3c-0.52-0.38-0.78-0.87-0.78-1.49v-4.38h1.02v4.39c0,0.42,0.16,0.77,0.48,1.03
			c0.32,0.27,0.75,0.4,1.28,0.4h1.17c0.37,0,0.74-0.08,1.12-0.24c0.38-0.16,0.71-0.38,1-0.65c0.29-0.27,0.49-0.56,0.59-0.87v-4.06h1
			v6.33h-0.98v-1.14c-0.32,0.36-0.73,0.66-1.23,0.89c-0.5,0.23-0.99,0.35-1.46,0.35h-1.21C359.01,91.87,358.34,91.68,357.83,91.3z"
			/>
		<path class="st0" d="M373.09,91.38c-0.35-0.25-0.53-0.68-0.53-1.27v-7.23h1.02v7.23c0,0.37,0.1,0.64,0.29,0.8
			c0.2,0.16,0.52,0.24,0.98,0.24h0.61v0.61h-0.61C374.03,91.76,373.44,91.64,373.09,91.38z"/>
	</g>
	<g>
		<path class="st0" d="M69.34,40.54C67.53,56.97,53.6,69.77,36.67,69.77c-16.78,0-30.64-12.6-32.61-28.85
			c1.79,8.51,13.22,15.3,27.76,16.54c0.11,0.02,0.22,0.02,0.33,0.02l16.62,6.96l-3.12-7.49C58.38,54.85,67.97,48.39,69.34,40.54z"/>
		<path class="st1" d="M69.54,36.9c0,0.57-0.02,1.11-0.04,1.68c0-10.55-14.7-19.1-32.85-19.1c-17.77,0-32.27,8.22-32.83,18.48
			C3.8,37.61,3.8,37.25,3.8,36.9c0-18.15,14.72-32.87,32.87-32.87C54.82,4.03,69.54,18.75,69.54,36.9z"/>
		<path class="st2" d="M3.86,38.58c-0.02-0.2-0.04-0.42-0.04-0.62c-0.02,0.2-0.02,0.42-0.02,0.62"/>
		<line class="st2" x1="3.86" y1="38.58" x2="3.8" y2="38.58"/>
	</g>
</g>
</svg>
